<svg width="21" height="20" fill="none" xmlns="http://www.w3.org/2000/svg">
  <path fill-rule="evenodd" clip-rule="evenodd" d="M10.3333 0c-5.5225 0-10 4.4775-10 10s4.4775 10 10 10 10-4.4775 10-10-4.4775-10-10-10Zm3.7008 14.0767c-1.7516.12-5.6533.12-7.4025 0C4.735 13.9467 4.5142 13.0183 4.5 10c.0141-3.0242.2375-3.9467 2.1316-4.0767 1.7492-.12 5.6517-.12 7.4025 0 1.8975.13 2.1175 1.0584 2.1325 4.0767-.015 3.0242-.2375 3.9467-2.1325 4.0767Zm-1.27-4.08L8.6667 8.0483v3.9034l4.0974-1.955Z" fill="#fff"/>
</svg>